<?xml version="1.0" standalone="no"?>
<!DOCTYPE svg PUBLIC "-//W3C//DTD SVG 20010904//EN"
 "http://www.w3.org/TR/2001/REC-SVG-20010904/DTD/svg10.dtd">
<svg version="1.0" xmlns="http://www.w3.org/2000/svg"
 width="231.000000pt" height="218.000000pt" viewBox="0 0 231.000000 218.000000"
 preserveAspectRatio="xMidYMid meet">

<g transform="translate(0.000000,218.000000) scale(0.100000,-0.100000)"
fill="#000000" stroke="none">
<path d="M0 1638 l0 -543 540 540 c297 297 540 541 540 542 0 2 -243 3 -540 3
l-540 0 0 -542z"/>
<path d="M1090 1923 l0 -257 -417 -418 -417 -418 -128 127 -128 128 0 -543 0
-542 542 0 543 0 -178 178 -177 177 180 180 180 180 0 -358 0 -357 65 0 65 0
0 257 0 258 287 287 288 288 -288 288 -287 287 0 258 0 257 -65 0 -65 0 0
-257z m-232 -1230 l-233 -233 -132 132 -133 133 362 362 363 363 3 -262 2
-263 -232 -232z"/>
<path d="M1756 1648 c291 -293 534 -537 541 -541 11 -6 13 98 13 533 l0 540
-542 0 -541 0 529 -532z"/>
<path d="M1766 544 l-538 -544 541 0 541 0 0 545 c0 300 -1 545 -2 544 -2 0
-245 -245 -542 -545z"/>
</g>
</svg>
