<?xml version="1.0" standalone="no"?>
<!DOCTYPE svg PUBLIC "-//W3C//DTD SVG 20010904//EN"
 "http://www.w3.org/TR/2001/REC-SVG-20010904/DTD/svg10.dtd">
<svg version="1.0" xmlns="http://www.w3.org/2000/svg"
 width="204.000000pt" height="192.000000pt" viewBox="0 0 204.000000 192.000000"
 preserveAspectRatio="xMidYMid meet">

<g transform="translate(0.000000,192.000000) scale(0.100000,-0.100000)"
fill="#000000" stroke="none">
<path d="M86 1203 c-20 -21 1 -127 36 -179 41 -60 119 -83 164 -49 27 21 34
19 34 -10 0 -32 -24 -82 -58 -117 -25 -27 -25 -28 -5 -28 24 0 69 49 90 97 7
18 13 54 13 81 0 59 -24 95 -75 112 -19 6 -33 16 -29 21 11 18 67 41 107 44
63 5 59 25 -5 25 -94 0 -188 -68 -188 -136 0 -15 -5 -22 -13 -18 -21 8 -47 71
-47 114 0 37 -10 56 -24 43z"/>
<path d="M1060 1201 c-33 -9 -70 -66 -70 -106 0 -18 10 -47 23 -66 l23 -34
184 0 c158 0 185 2 185 15 0 13 -28 16 -172 20 -94 3 -173 7 -176 10 -31 35
-29 93 3 110 10 6 88 10 172 10 161 0 199 8 164 35 -16 12 -51 15 -165 14 -80
-1 -157 -4 -171 -8z"/>
<path d="M1472 1198 c-18 -18 -16 -192 3 -208 22 -18 35 -3 35 43 l0 43 138
-4 c147 -4 172 -13 172 -57 0 -13 6 -25 14 -28 27 -11 36 17 36 114 0 79 -3
98 -16 103 -25 10 -34 -2 -34 -47 l0 -42 -132 4 c-73 1 -141 7 -150 12 -10 5
-21 24 -26 41 -9 36 -22 44 -40 26z"/>
<path d="M547 1193 c-4 -3 -7 -51 -7 -105 0 -89 2 -99 18 -96 14 3 18 16 20
73 2 39 7 74 11 78 10 10 54 -11 116 -53 81 -55 164 -100 182 -100 36 0 43 20
43 117 0 86 -1 93 -20 93 -18 0 -20 -7 -20 -74 0 -41 -5 -78 -10 -81 -6 -4
-61 25 -123 63 -62 38 -122 74 -134 81 -24 12 -66 15 -76 4z"/>
<path d="M670 850 c0 -5 5 -10 10 -10 6 0 10 5 10 10 0 6 -4 10 -10 10 -5 0
-10 -4 -10 -10z"/>
<path d="M840 845 c0 -8 5 -15 10 -15 6 0 10 7 10 15 0 8 -4 15 -10 15 -5 0
-10 -7 -10 -15z"/>
<path d="M1150 850 c0 -5 5 -10 10 -10 6 0 10 5 10 10 0 6 -4 10 -10 10 -5 0
-10 -4 -10 -10z"/>
<path d="M1567 853 c-12 -12 -7 -22 8 -17 8 4 15 10 15 15 0 11 -14 12 -23 2z"/>
<path d="M1830 845 c0 -8 4 -15 10 -15 5 0 7 7 4 15 -4 8 -8 15 -10 15 -2 0
-4 -7 -4 -15z"/>
<path d="M760 840 c0 -5 5 -10 10 -10 6 0 10 5 10 10 0 6 -4 10 -10 10 -5 0
-10 -4 -10 -10z"/>
</g>
</svg>
