<?xml version="1.0" standalone="no"?>
<!DOCTYPE svg PUBLIC "-//W3C//DTD SVG 20010904//EN"
 "http://www.w3.org/TR/2001/REC-SVG-20010904/DTD/svg10.dtd">
<svg version="1.0" xmlns="http://www.w3.org/2000/svg"
 width="225.000000pt" height="225.000000pt" viewBox="0 0 225.000000 225.000000"
 preserveAspectRatio="xMidYMid meet">

<g transform="translate(0.000000,225.000000) scale(0.100000,-0.100000)"
fill="#000000" stroke="none">
<path d="M930 2111 c-329 -73 -580 -280 -712 -587 -90 -210 -98 -472 -22 -698
88 -260 306 -488 564 -593 130 -52 205 -66 360 -66 166 0 248 15 379 68 111
46 177 86 270 165 172 149 279 331 326 555 18 90 21 266 5 358 -67 381 -350
689 -728 788 -114 30 -329 35 -442 10z m-38 -178 c61 -28 124 -71 203 -136
l29 -25 51 43 c126 105 229 155 323 155 97 0 160 -57 183 -168 11 -54 7 -224
-7 -313 -6 -35 -5 -36 38 -48 70 -21 182 -78 236 -121 91 -71 123 -160 89
-243 -31 -72 -198 -190 -325 -228 -42 -12 -43 -14 -38 -43 51 -247 6 -438
-110 -476 -91 -30 -246 25 -373 134 l-63 55 -67 -55 c-120 -100 -265 -157
-355 -140 -120 23 -179 192 -142 405 9 52 13 98 9 101 -4 4 -26 13 -48 20
-162 51 -305 168 -330 271 -26 106 119 247 328 318 59 21 57 11 37 160 -23
177 16 311 102 355 52 26 148 18 230 -21z"/>
<path d="M676 1860 c-14 -17 -29 -47 -33 -68 -11 -53 -8 -187 7 -256 l12 -58
31 6 c18 4 74 13 126 21 74 11 97 19 109 36 8 11 42 55 75 96 l61 76 -54 49
c-76 68 -198 128 -260 128 -41 0 -52 -4 -74 -30z"/>
<path d="M1381 1857 c-68 -35 -190 -126 -191 -142 0 -5 24 -39 53 -75 28 -36
61 -78 73 -94 19 -26 30 -30 110 -41 49 -7 105 -16 125 -20 l37 -7 11 64 c25
144 5 300 -42 333 -36 25 -104 19 -176 -18z"/>
<path d="M1072 1594 c-28 -32 -52 -61 -52 -64 0 -3 47 -5 104 -5 118 0 117 -3
44 79 l-44 49 -52 -59z"/>
<path d="M1025 1443 l-71 -4 -31 -47 c-50 -78 -133 -229 -133 -243 0 -17 78
-163 128 -241 l37 -58 168 0 167 0 44 68 c24 37 63 102 86 146 l43 78 -22 47
c-13 25 -50 92 -84 149 l-61 102 -57 0 c-31 0 -76 2 -100 3 -24 2 -76 2 -114
0z m185 -155 c76 -52 99 -132 61 -210 -39 -81 -124 -115 -206 -83 -77 29 -122
117 -101 199 8 31 62 95 90 106 43 18 121 11 156 -12z"/>
<path d="M763 1416 c-35 -7 -66 -15 -69 -19 -7 -7 32 -125 46 -140 4 -5 24 21
44 58 20 36 43 77 52 90 19 29 19 29 -73 11z"/>
<path d="M1400 1423 c0 -5 4 -13 9 -18 5 -6 30 -45 54 -88 l44 -78 28 77 c31
86 31 88 -44 99 -25 3 -56 9 -68 12 -13 3 -23 1 -23 -4z"/>
<path d="M527 1354 c-132 -49 -227 -118 -248 -181 -23 -71 62 -156 226 -228
44 -19 85 -35 90 -35 6 0 22 33 36 73 15 39 35 93 45 118 l18 47 -42 105 c-23
58 -42 110 -42 116 0 15 -4 14 -83 -15z"/>
<path d="M1624 1328 c-9 -29 -29 -81 -45 -116 l-28 -62 28 -63 c15 -34 36 -86
46 -116 17 -52 18 -53 49 -47 17 3 68 24 114 46 105 50 182 123 182 172 0 54
-43 103 -136 158 -42 24 -173 80 -188 80 -3 0 -12 -24 -22 -52z"/>
<path d="M712 973 c-16 -43 -28 -80 -26 -82 4 -4 157 -30 161 -28 1 1 -23 44
-52 95 l-53 93 -30 -78z"/>
<path d="M1454 964 c-27 -49 -50 -92 -52 -96 -2 -3 5 -5 15 -3 10 2 48 9 85
15 l67 12 -24 64 c-40 107 -37 106 -91 8z"/>
<path d="M656 793 c-14 -48 -27 -192 -21 -237 9 -65 38 -131 63 -145 63 -34
211 26 340 136 l34 29 -59 69 c-32 39 -67 83 -79 99 -19 26 -29 30 -120 41
-54 8 -111 16 -126 20 -20 5 -27 3 -32 -12z"/>
<path d="M1480 795 c-36 -7 -81 -13 -101 -14 -33 -1 -42 -8 -95 -77 -33 -43
-68 -88 -79 -102 l-19 -25 54 -49 c98 -86 228 -141 294 -124 58 14 91 136 76
284 -5 45 -11 91 -15 102 -7 23 -19 23 -115 5z"/>
<path d="M1026 758 c4 -7 28 -37 53 -67 l46 -53 43 47 c78 86 78 85 -43 85
-82 0 -105 -3 -99 -12z"/>
</g>
</svg>
