<?xml version="1.0" standalone="no"?>
<!DOCTYPE svg PUBLIC "-//W3C//DTD SVG 20010904//EN"
 "http://www.w3.org/TR/2001/REC-SVG-20010904/DTD/svg10.dtd">
<svg version="1.0" xmlns="http://www.w3.org/2000/svg"
 width="358.000000pt" height="141.000000pt" viewBox="0 0 358.000000 141.000000"
 preserveAspectRatio="xMidYMid meet">

<g transform="translate(0.000000,141.000000) scale(0.100000,-0.100000)"
fill="#000000" stroke="none">
<path d="M408 1403 c-39 -6 -86 -57 -119 -128 -31 -67 -59 -164 -59 -207 0
-16 -11 -45 -25 -66 -71 -108 -74 -254 -7 -405 19 -43 24 -47 56 -47 39 0 48
-15 16 -25 -11 -3 -23 -18 -26 -33 -9 -36 -23 -52 -45 -52 -11 0 -19 6 -19 13
0 6 -5 4 -11 -5 -14 -26 -59 -24 -59 2 0 25 -3 25 -51 -2 -37 -21 -39 -24 -40
-72 0 -28 -4 -73 -8 -100 l-8 -49 36 44 c60 72 89 99 108 99 10 0 42 -9 71
-19 35 -13 52 -16 49 -8 -2 7 -22 19 -45 27 -23 8 -41 19 -39 25 5 13 94 38
113 31 14 -5 13 -30 -3 -76 -7 -21 -15 -95 -17 -152 0 -27 -4 -48 -8 -48 -12
0 -9 -46 3 -74 7 -13 25 -30 41 -37 28 -11 32 -10 48 11 l18 24 23 -38 c19
-32 25 -37 48 -31 14 3 41 21 59 38 33 31 34 33 27 92 -6 57 -46 241 -60 278
-5 12 -2 17 9 17 22 0 47 42 45 76 -1 16 13 59 30 96 47 102 59 191 39 287
-15 73 -58 161 -79 161 -5 0 -9 -14 -9 -31 0 -17 -4 -38 -10 -48 -10 -19 -30
-114 -50 -236 -14 -87 -34 -129 -67 -144 -21 -9 -30 -9 -49 4 -53 35 -69 125
-44 254 5 29 10 78 10 107 0 29 4 56 10 59 14 8 47 129 55 195 3 31 16 76 28
100 l22 45 69 3 69 3 -6 -73 c-5 -77 5 -108 37 -108 21 0 20 13 -2 34 -16 14
-18 28 -14 94 l4 78 -59 12 c-33 6 -63 11 -69 11 -5 -1 -21 -4 -36 -6z m87
-867 c25 -22 27 -28 19 -56 -12 -42 -29 -34 -28 13 1 48 -17 48 -42 1 -22 -43
-54 -66 -61 -46 -4 10 -9 9 -24 -4 -22 -20 -49 -12 -49 15 0 54 35 85 105 94
17 2 35 5 41 6 6 0 24 -10 39 -23z"/>
<path d="M991 1346 c-10 -11 -9 -21 4 -45 8 -17 19 -31 24 -31 5 0 11 -9 14
-20 4 -15 14 -20 37 -20 17 0 41 -5 52 -11 19 -10 19 -9 -3 31 -22 39 -93 110
-110 110 -3 0 -12 -6 -18 -14z"/>
<path d="M449 1335 c-1 -6 -1 -14 0 -19 1 -5 -4 -4 -12 2 -8 7 -17 9 -20 5 -9
-8 12 -33 28 -33 17 0 28 31 15 44 -6 6 -10 6 -11 1z"/>
<path d="M3060 782 l0 -63 -22 15 c-31 22 -84 20 -107 -3 -17 -17 -41 -78 -41
-106 0 -29 24 -88 42 -105 26 -24 76 -26 104 -5 25 19 34 19 34 0 0 -9 9 -15
25 -15 l25 0 0 173 0 172 -30 0 -30 0 0 -63z m-10 -97 c16 -19 16 -100 0 -120
-16 -19 -54 -19 -74 1 -18 18 -21 85 -6 115 13 23 62 26 80 4z"/>
<path d="M787 824 c-4 -4 -7 -18 -7 -31 0 -21 5 -23 45 -23 l45 0 0 -135 0
-135 35 0 35 0 0 135 0 135 46 0 c44 0 45 1 42 28 l-3 27 -116 3 c-63 1 -118
-1 -122 -4z"/>
<path d="M2670 827 c0 -2 -25 -75 -55 -162 -30 -86 -55 -159 -55 -161 0 -2 15
-4 33 -4 31 0 35 4 46 40 l12 40 63 0 64 0 9 -37 c8 -33 13 -38 41 -41 21 -2
32 1 32 10 0 7 -24 81 -54 163 l-54 150 -41 3 c-22 2 -41 1 -41 -1z m47 -185
c-21 -2 -41 -1 -43 1 -4 4 24 105 34 121 3 6 15 -19 27 -55 l22 -64 -40 -3z"/>
<path d="M1123 740 c-50 -20 -74 -102 -48 -166 30 -77 126 -100 187 -45 31 28
33 33 33 96 0 63 -2 68 -33 96 -25 23 -41 29 -75 28 -23 0 -52 -4 -64 -9z m97
-55 c15 -18 15 -102 0 -120 -16 -20 -55 -19 -74 1 -18 18 -21 85 -6 115 13 23
62 26 80 4z"/>
<path d="M1360 650 c0 -94 2 -103 25 -125 29 -30 79 -33 114 -9 22 16 24 16
33 0 5 -9 20 -16 33 -16 l25 0 0 125 0 125 -35 0 -35 0 0 -84 c0 -92 -11 -116
-55 -116 -35 0 -45 28 -45 119 l0 81 -30 0 -30 0 0 -100z"/>
<path d="M1699 735 c-36 -20 -52 -64 -47 -131 6 -67 28 -93 86 -101 61 -8 92
2 92 32 0 23 -2 24 -44 19 -38 -6 -45 -3 -60 17 -20 30 -21 78 0 107 13 19 24
23 56 21 30 -3 42 1 50 15 8 14 7 21 -3 27 -22 13 -101 10 -130 -6z"/>
<path d="M1928 743 c-19 -5 -21 -12 -12 -36 4 -12 12 -13 40 -5 40 11 74 3 74
-18 0 -8 0 -17 0 -21 0 -5 -25 -11 -57 -14 -65 -8 -93 -32 -93 -80 0 -64 87
-94 137 -47 l24 22 6 -22 c4 -15 13 -22 30 -22 l25 0 -4 106 c-3 97 -5 107
-27 125 -22 18 -96 25 -143 12z m104 -128 c3 -3 3 -17 0 -31 -5 -27 -41 -48
-67 -38 -21 8 -19 51 3 63 18 11 55 14 64 6z"/>
<path d="M2170 625 l0 -125 35 0 35 0 0 81 c0 96 10 119 50 119 40 0 50 -23
50 -119 l0 -81 30 0 30 0 0 100 c0 94 -2 103 -25 125 -29 29 -88 34 -123 9
-20 -14 -23 -14 -28 0 -3 9 -17 16 -30 16 l-24 0 0 -125z"/>
<path d="M3206 727 c-14 -15 -26 -31 -26 -36 0 -32 23 -59 69 -80 34 -16 51
-31 51 -43 0 -23 -37 -32 -74 -19 -40 16 -46 14 -46 -13 0 -27 21 -36 83 -36
116 0 140 102 36 150 -74 35 -52 73 28 46 17 -5 23 -2 28 14 9 29 3 33 -65 38
-53 4 -61 2 -84 -21z"/>
</g>
</svg>
